<svg width="18" height="18" viewBox="0 0 18 18" fill="none" xmlns="http://www.w3.org/2000/svg">
    <path d="M17.6674 9.03895C17.6674 10.7529 17.1591 12.4284 16.2069 13.8536C15.2547 15.2787 13.9013 16.3895 12.3178 17.0454C10.7343 17.7014 8.9919 17.8731 7.31084 17.5388C5.62978 17.2045 4.0856 16.3792 2.87355 15.1674C1.66151 13.9555 0.83603 12.4114 0.501507 10.7304C0.166983 9.04937 0.338436 7.30691 0.994185 5.72333C1.64993 4.13976 2.76053 2.78619 4.18553 1.83379C5.61054 0.881381 7.28596 0.372914 8.99993 0.372681C11.2977 0.375183 13.5007 1.289 15.1256 2.91366C16.7505 4.53833 17.6646 6.74117 17.6674 9.03895Z" fill="#3339F1"/>
    <path d="M13.6386 6.3221C13.5635 6.23387 13.4701 6.16301 13.3649 6.11441C13.2597 6.06582 13.1453 6.04065 13.0294 6.04065C12.9135 6.04065 12.799 6.06582 12.6938 6.11441C12.5886 6.16301 12.4953 6.23387 12.4202 6.3221L8.29797 10.4443C8.18277 10.553 8.03396 10.6193 7.87606 10.6322C7.79589 10.6364 7.71587 10.6216 7.64253 10.5889C7.56919 10.5563 7.50464 10.5067 7.45416 10.4443L5.57979 8.56992C5.50416 8.48533 5.40959 8.41983 5.30382 8.37875C5.19804 8.33767 5.08406 8.32219 4.97116 8.33356C4.74568 8.3325 4.52819 8.41696 4.36252 8.56992C4.2046 8.73341 4.11633 8.95184 4.11633 9.17915C4.11633 9.40645 4.2046 9.62488 4.36252 9.78837L7.26743 12.6933C7.43761 12.8388 7.65224 12.9222 7.87606 12.9296C8.10154 12.9307 8.31903 12.8462 8.4847 12.6933L13.6374 7.54056C13.7257 7.46553 13.7967 7.37222 13.8454 7.26708C13.8941 7.16194 13.9194 7.04747 13.9195 6.9316C13.9196 6.81573 13.8945 6.70122 13.846 6.59598C13.7975 6.49074 13.7268 6.3973 13.6386 6.3221Z" fill="#FAFAFA"/>
</svg>
