<svg width="16" height="16" viewBox="0 0 16 16" fill="none" xmlns="http://www.w3.org/2000/svg">
    <path d="M12.7523 5.3302C12.6701 5.13386 12.514 4.97773 12.3177 4.89548C12.2217 4.84113 12.1149 4.80855 12.005 4.80005H8.2416C8.03073 4.80005 7.8285 4.88383 7.6794 5.03297C7.53029 5.1821 7.44652 5.38437 7.44652 5.59528C7.44652 5.80618 7.53029 6.00845 7.6794 6.15759C7.8285 6.30672 8.03073 6.3905 8.2416 6.3905H10.1021L5.03479 11.4428C4.96043 11.5163 4.90139 11.6038 4.86109 11.7003C4.8208 11.7967 4.80005 11.9003 4.80005 12.0048C4.80005 12.1093 4.8208 12.2129 4.86109 12.3093C4.90139 12.4058 4.96043 12.4933 5.03479 12.5668C5.10801 12.6413 5.19549 12.7004 5.29201 12.7405C5.38854 12.7806 5.49214 12.8008 5.59664 12.8C5.70115 12.8008 5.80475 12.7806 5.90127 12.7405C5.9978 12.7004 6.08527 12.6413 6.1585 12.5668L11.2099 7.51442V9.35935C11.2099 9.57025 11.2937 9.77252 11.4428 9.92166C11.5919 10.0708 11.7941 10.1546 12.005 10.1546C12.2158 10.1546 12.4181 10.0708 12.5672 9.92166C12.7163 9.77252 12.8 9.57025 12.8 9.35935V5.59528C12.7977 5.50501 12.7816 5.41563 12.7523 5.3302Z" fill="black"/>
</svg>
