<svg width="33" height="32" viewBox="0 0 33 32" fill="none" xmlns="http://www.w3.org/2000/svg">
    <g clip-path="url(#clip0_521_2718)">
        <path d="M32.5 16C32.5 7.16344 25.3366 0 16.5 0C7.66344 0 0.5 7.16344 0.5 16C0.5 24.8366 7.66344 32 16.5 32C25.3366 32 32.5 24.8366 32.5 16Z" fill="white"/>
        <path d="M31.9668 16.0001C31.9668 7.45811 25.0421 0.533447 16.5001 0.533447C7.95811 0.533447 1.03345 7.45811 1.03345 16.0001C1.03345 24.5421 7.95811 31.4668 16.5001 31.4668C25.0421 31.4668 31.9668 24.5421 31.9668 16.0001Z" stroke="#ebebfe" stroke-opacity="1"/>
        <path d="M27.1656 15.9989C27.1656 10.1079 22.39 5.33228 16.4989 5.33228C10.6079 5.33228 5.83228 10.1079 5.83228 15.9989C5.83228 21.89 10.6079 26.6656 16.4989 26.6656C22.39 26.6656 27.1656 21.89 27.1656 15.9989Z" fill="#ebebfe" fill-opacity="1"/>
        <mask id="mask0_521_2718" style="mask-type:luminance" maskUnits="userSpaceOnUse" x="9" y="8" width="15" height="16">
            <path d="M23.9668 8.53442H9.03345V23.4678H23.9668V8.53442Z" fill="white"/>
        </mask>
        <g mask="url(#mask0_521_2718)">
            <path d="M14.3512 19.4803L12.0491 17.0001C11.9445 16.8937 11.8624 16.7669 11.8074 16.6282C11.7525 16.4895 11.726 16.3419 11.7293 16.1928C11.7258 16.0438 11.7525 15.8949 11.8074 15.7563C11.8624 15.6178 11.9444 15.4926 12.0491 15.3865L12.0626 15.3626L12.0835 15.3542C12.3069 15.146 12.5999 15.0288 12.9053 15.0272C13.0561 15.0271 13.2053 15.0591 13.3428 15.1209C13.4804 15.1827 13.6032 15.2738 13.7033 15.3865L15.1449 17.0011L19.3751 12.5209C19.4717 12.407 19.5921 12.3165 19.7283 12.2553C19.8644 12.194 20.0133 12.1635 20.1626 12.1667C20.3118 12.1708 20.4583 12.2046 20.5939 12.2667C20.7295 12.3289 20.8507 12.4179 20.9512 12.5282C21.0575 12.6383 21.141 12.7693 21.1949 12.9126C21.2489 13.0558 21.2731 13.2086 21.2658 13.3615C21.2565 13.5133 21.2156 13.6612 21.147 13.7969C21.0784 13.9327 20.9835 14.0536 20.8668 14.1511L15.9293 19.4844C15.8334 19.5995 15.7134 19.6918 15.5772 19.7542C15.441 19.8166 15.2927 19.8474 15.1428 19.8449C14.9921 19.8467 14.8423 19.8142 14.7053 19.7511C14.5684 19.688 14.4477 19.5961 14.3512 19.4803Z" fill="black"/>
        </g>
    </g>
    <defs>
        <clipPath id="clip0_521_2718">
            <rect width="32" height="32" fill="white" transform="translate(0.5)"/>
        </clipPath>
    </defs>
</svg>
