<svg width="21" height="20" viewBox="0 0 21 20" fill="none" xmlns="http://www.w3.org/2000/svg">
    <path d="M5.3706 8.15896C5.46062 7.89212 5.73066 7.71431 6.0007 7.80326L7.08087 8.07004L9.78129 3H5.64065L1.5 7.71422L9.42124 17.2318C9.42124 17.3208 9.51125 17.2318 9.51125 17.1429L6.90084 8.95953L5.73066 8.60371C5.46062 8.69266 5.28059 8.42581 5.3706 8.15896Z" fill="black"/>
    <path d="M10.5048 17.4098L12.9351 9.22656H7.98438L10.5048 17.4098Z" fill="black"/>
    <path d="M10.4966 3.89062L8.15625 8.24914H12.747L10.4966 3.89062Z" fill="black"/>
    <path d="M15.2694 3.09375H11.2188L13.9192 8.16379L14.9993 7.89701C15.2694 7.80806 15.5394 7.98598 15.6294 8.25282C15.7195 8.51967 15.5394 8.78647 15.2694 8.87542L14.0992 9.23124L11.4888 17.4145C11.4888 17.5034 11.5788 17.5034 11.5788 17.5034L19.5 7.98593L15.2694 3.09375Z" fill="black"/>
</svg>

