<svg width="33" height="32" viewBox="0 0 33 32" fill="none" xmlns="http://www.w3.org/2000/svg">
    <g clip-path="url(#clip0_521_2649)">
        <path d="M32.5 16C32.5 7.16344 25.3366 0 16.5 0C7.66344 0 0.5 7.16344 0.5 16C0.5 24.8366 7.66344 32 16.5 32C25.3366 32 32.5 24.8366 32.5 16Z" fill="white"/>
        <path d="M31.9668 16.0001C31.9668 7.45811 25.0421 0.533447 16.5001 0.533447C7.95811 0.533447 1.03345 7.45811 1.03345 16.0001C1.03345 24.5421 7.95811 31.4668 16.5001 31.4668C25.0421 31.4668 31.9668 24.5421 31.9668 16.0001Z" stroke="black" stroke-opacity="0.1"/>
        <path d="M27.1656 15.9989C27.1656 10.1079 22.39 5.33228 16.4989 5.33228C10.6079 5.33228 5.83228 10.1079 5.83228 15.9989C5.83228 21.89 10.6079 26.6656 16.4989 26.6656C22.39 26.6656 27.1656 21.89 27.1656 15.9989Z" fill="black" fill-opacity="0.1"/>
        <mask id="mask0_521_2649" style="mask-type:luminance" maskUnits="userSpaceOnUse" x="9" y="8" width="15" height="16">
            <path d="M23.9668 8.53345H9.03345V23.4668H23.9668V8.53345Z" fill="white"/>
        </mask>
        <g mask="url(#mask0_521_2649)">
            <path d="M18.6847 19.4646L16.5002 17.2792L14.3135 19.4646C14.1871 19.592 14.0257 19.6787 13.8498 19.7141C13.6739 19.7495 13.4913 19.7322 13.3255 19.6636C13.1597 19.595 13.018 19.4786 12.9185 19.3292C12.8191 19.1799 12.7663 19.004 12.7669 18.8245C12.7663 18.5849 12.8606 18.3547 13.0292 18.1844L15.2159 15.999L13.0292 13.8136C12.8614 13.6428 12.7674 13.4129 12.7674 13.1735C12.7674 12.9341 12.8614 12.7041 13.0292 12.5334H13.0346C13.2043 12.3656 13.4333 12.2714 13.6719 12.2714C13.9105 12.2714 14.1395 12.3656 14.3092 12.5334L16.497 14.7209L18.6868 12.5292C18.857 12.3622 19.0858 12.2688 19.3242 12.2688C19.5626 12.2688 19.7914 12.3622 19.9615 12.5292H19.9668C20.1347 12.7 20.2287 12.9299 20.2287 13.1693C20.2287 13.4087 20.1347 13.6381 19.9668 13.8089L17.7802 15.999L19.97 18.1891C20.1385 18.3595 20.2329 18.5891 20.2325 18.8287C20.2335 19.0086 20.1808 19.1851 20.0812 19.3349C19.9816 19.4848 19.8396 19.6011 19.6734 19.6698C19.5071 19.7385 19.3241 19.7562 19.1478 19.7204C18.9715 19.6845 18.8099 19.5969 18.6836 19.4688L18.6847 19.4646Z" fill="black"/>
        </g>
    </g>
    <defs>
        <clipPath id="clip0_521_2649">
            <rect width="32" height="32" fill="white" transform="translate(0.5)"/>
        </clipPath>
    </defs>
</svg>
