<svg width="30" height="30" viewBox="0 0 30 30" fill="none" xmlns="http://www.w3.org/2000/svg">
    <rect width="30" height="30" rx="15" fill="white" fill-opacity="0.15"/>
    <g clip-path="url(#clip0_423_3476)">
        <path d="M15 20.5H10.875C10.5105 20.4995 10.1611 20.3544 9.90331 20.0967C9.64556 19.8389 9.50053 19.4895 9.5 19.125V10.875C9.50053 10.5105 9.64556 10.1611 9.90331 9.90331C10.1611 9.64556 10.5105 9.50053 10.875 9.5H19.125C19.4895 9.50053 19.8389 9.64556 20.0967 9.90331C20.3544 10.1611 20.4995 10.5105 20.5 10.875V19.125C20.4995 19.4895 20.3544 19.8389 20.0967 20.0967C19.8389 20.3544 19.4895 20.4995 19.125 20.5H17.062V16.719H18.093L18.781 15H17.062V13.625C17.062 13.306 17.284 13.281 17.574 13.281H18.437V11.562H17.062C16.5152 11.5628 15.991 11.7804 15.6045 12.1672C15.2179 12.5539 15.0005 13.0782 15 13.625V15H13.625V16.719H15V20.5Z" fill="white"/>
    </g>
    <defs>
        <clipPath id="clip0_423_3476">
            <rect width="14" height="14" fill="white" transform="translate(8 8)"/>
        </clipPath>
    </defs>
</svg>
