<svg width="30" height="30" viewBox="0 0 30 30" fill="none" xmlns="http://www.w3.org/2000/svg">
    <rect width="30" height="30" rx="15" fill="white" fill-opacity="0.15"/>
    <g clip-path="url(#clip0_423_3482)">
        <path d="M19.126 20.5H10.875C10.5104 20.4997 10.1608 20.3548 9.90302 20.097C9.64522 19.8392 9.50026 19.4896 9.5 19.125V10.875C9.50053 10.5105 9.64556 10.1611 9.90331 9.90331C10.1611 9.64556 10.5105 9.50053 10.875 9.5H19.126C19.4904 9.50053 19.8397 9.6456 20.0973 9.90337C20.3549 10.1612 20.4997 10.5106 20.5 10.875V19.125C20.5 19.4895 20.3553 19.8391 20.0976 20.0969C19.84 20.3548 19.4905 20.4997 19.126 20.5ZM16.376 15.11C16.593 15.1153 16.7996 15.2038 16.9531 15.3572C17.1067 15.5105 17.1954 15.717 17.201 15.934V18.851H18.85V15.716C18.8435 15.2075 18.6388 14.7217 18.2794 14.362C17.9201 14.0022 17.4344 13.797 16.926 13.79C16.6531 13.8043 16.3871 13.8811 16.1487 14.0146C15.9103 14.1482 15.7058 14.3348 15.551 14.56V13.9H13.9V18.85H15.551V15.935C15.5566 15.718 15.6453 15.5115 15.7989 15.3582C15.9524 15.2048 16.159 15.1153 16.376 15.11ZM11.15 13.9V18.85H12.8V13.9H11.15ZM11.975 10.984C11.7473 10.9847 11.5268 11.0643 11.3512 11.2092C11.1755 11.3541 11.0555 11.5554 11.0115 11.7789C10.9676 12.0023 11.0024 12.2341 11.1101 12.4347C11.2177 12.6354 11.3916 12.7925 11.6021 12.8795C11.8126 12.9664 12.0467 12.9776 12.2646 12.9114C12.4824 12.8451 12.6706 12.7054 12.7971 12.5161C12.9236 12.3267 12.9805 12.0993 12.9583 11.8727C12.936 11.6461 12.8359 11.4341 12.675 11.273C12.583 11.1813 12.4738 11.1087 12.3537 11.0592C12.2336 11.0098 12.1049 10.9846 11.975 10.985V10.984Z" fill="white"/>
    </g>
    <defs>
        <clipPath id="clip0_423_3482">
            <rect width="14" height="14" fill="white" transform="translate(8 8)"/>
        </clipPath>
    </defs>
</svg>
