<svg width="30" height="30" viewBox="0 0 30 30" fill="none" xmlns="http://www.w3.org/2000/svg">
    <rect width="30" height="30" rx="15" fill="white" fill-opacity="0.15"/>
    <g clip-path="url(#clip0_423_3445)">
        <path d="M11.356 16.6589C11.356 16.9206 11.2784 17.1764 11.133 17.394C10.9876 17.6115 10.781 17.7811 10.5392 17.8812C10.2975 17.9814 10.0315 18.0076 9.77486 17.9565C9.51822 17.9055 9.28248 17.7795 9.09746 17.5944C8.91243 17.4094 8.78643 17.1737 8.73538 16.917C8.68433 16.6604 8.71053 16.3944 8.81067 16.1526C8.9108 15.9109 9.08038 15.7043 9.29794 15.5589C9.51551 15.4135 9.7713 15.3359 10.033 15.3359H11.356V16.6589Z" fill="white"/>
        <path d="M12.0181 16.6589C12.0181 16.3081 12.1575 15.9715 12.4056 15.7234C12.6537 15.4753 12.9902 15.3359 13.3411 15.3359C13.6919 15.3359 14.0285 15.4753 14.2766 15.7234C14.5247 15.9715 14.6641 16.3081 14.6641 16.6589V19.9669C14.6641 20.3178 14.5247 20.6543 14.2766 20.9024C14.0285 21.1505 13.6919 21.2899 13.3411 21.2899C12.9902 21.2899 12.6537 21.1505 12.4056 20.9024C12.1575 20.6543 12.0181 20.3178 12.0181 19.9669V16.6589Z" fill="white"/>
        <path d="M13.3411 11.3462C13.0794 11.3462 12.8236 11.2686 12.606 11.1232C12.3885 10.9779 12.2189 10.7712 12.1188 10.5295C12.0186 10.2877 11.9924 10.0217 12.0435 9.76509C12.0945 9.50845 12.2205 9.27272 12.4056 9.0877C12.5906 8.90267 12.8263 8.77667 13.083 8.72562C13.3396 8.67457 13.6056 8.70077 13.8474 8.8009C14.0891 8.90104 14.2957 9.07061 14.4411 9.28818C14.5865 9.50574 14.6641 9.76153 14.6641 10.0232V11.3462H13.3411Z" fill="white"/>
        <path d="M13.341 12.0186C13.6918 12.0186 14.0283 12.1579 14.2765 12.4061C14.5246 12.6542 14.664 12.9907 14.664 13.3416C14.664 13.6924 14.5246 14.029 14.2765 14.2771C14.0283 14.5252 13.6918 14.6646 13.341 14.6646H10.023C9.67207 14.6646 9.33556 14.5252 9.08745 14.2771C8.83934 14.029 8.69995 13.6924 8.69995 13.3416C8.69995 12.9907 8.83934 12.6542 9.08745 12.4061C9.33556 12.1579 9.67207 12.0186 10.023 12.0186H13.341Z" fill="white"/>
        <path d="M18.644 13.3416C18.644 13.0799 18.7216 12.8241 18.867 12.6065C19.0124 12.389 19.219 12.2194 19.4608 12.1193C19.7025 12.0191 19.9685 11.9929 20.2252 12.044C20.4818 12.095 20.7175 12.221 20.9026 12.4061C21.0876 12.5911 21.2136 12.8268 21.2646 13.0835C21.3157 13.3401 21.2895 13.6061 21.1893 13.8478C21.0892 14.0896 20.9196 14.2962 20.7021 14.4416C20.4845 14.587 20.2287 14.6646 19.9671 14.6646H18.644V13.3416Z" fill="white"/>
        <path d="M17.9819 13.3412C17.9819 13.6921 17.8426 14.0286 17.5945 14.2767C17.3463 14.5248 17.0098 14.6642 16.659 14.6642C16.3081 14.6642 15.9715 14.5248 15.7234 14.2767C15.4753 14.0286 15.3359 13.6921 15.3359 13.3412V10.0232C15.3359 9.67232 15.4753 9.33581 15.7234 9.0877C15.9715 8.83959 16.3081 8.7002 16.659 8.7002C17.0098 8.7002 17.3463 8.83959 17.5945 9.0877C17.8426 9.33581 17.9819 9.67232 17.9819 10.0232V13.3412Z" fill="white"/>
        <path d="M16.659 18.6436C16.9206 18.6436 17.1764 18.7211 17.394 18.8665C17.6115 19.0119 17.7811 19.2185 17.8812 19.4603C17.9814 19.702 18.0076 19.968 17.9565 20.2247C17.9055 20.4813 17.7795 20.717 17.5945 20.9021C17.4094 21.0871 17.1737 21.2131 16.9171 21.2641C16.6604 21.3152 16.3944 21.289 16.1526 21.1888C15.9109 21.0887 15.7043 20.9191 15.5589 20.7016C15.4135 20.484 15.3359 20.2282 15.3359 19.9666V18.6436H16.659Z" fill="white"/>
        <path d="M16.659 17.9819C16.3081 17.9819 15.9715 17.8425 15.7234 17.5944C15.4753 17.3463 15.3359 17.0098 15.3359 16.6589C15.3359 16.3081 15.4753 15.9715 15.7234 15.7234C15.9715 15.4753 16.3081 15.3359 16.659 15.3359H19.9769C20.3278 15.3359 20.6643 15.4753 20.9124 15.7234C21.1606 15.9715 21.2999 16.3081 21.2999 16.6589C21.2999 17.0098 21.1606 17.3463 20.9124 17.5944C20.6643 17.8425 20.3278 17.9819 19.9769 17.9819H16.659Z" fill="white"/>
    </g>
    <defs>
        <clipPath id="clip0_423_3445">
            <rect width="14" height="14" fill="white" transform="translate(8 8)"/>
        </clipPath>
    </defs>
</svg>
