<svg width="16" height="16" viewBox="0 0 16 16" fill="none" xmlns="http://www.w3.org/2000/svg">
<path d="M8.36987 7.85222L10.5984 11.0465H9.63272L7.84987 8.44651L7.55272 8.00079L5.39844 4.95508H6.36415L8.07272 7.48079L8.36987 7.85222Z" fill="white"/>
<path d="M7.99868 0.794922C3.98726 0.794922 0.792969 4.06349 0.792969 8.00064C0.792969 11.9378 4.06154 15.2064 7.99868 15.2064C11.9358 15.2064 15.2044 11.9378 15.2044 8.00064C15.2044 4.06349 12.0101 0.794922 7.99868 0.794922ZM9.33583 11.4921L7.47868 8.81778L5.17583 11.4921H4.58154L7.25583 8.44635L4.58154 4.58349H6.58726L8.37011 7.10921L10.5987 4.58349H11.193L8.66726 7.48064L11.4158 11.4921H9.33583Z" fill="white"/>
</svg>
