<svg width="30" height="30" viewBox="0 0 30 30" fill="none" xmlns="http://www.w3.org/2000/svg">
    <rect width="30" height="30" rx="15" fill="white" fill-opacity="0.15"/>
    <g clip-path="url(#clip0_423_3463)">
        <path d="M21.2849 10.997C21.2763 10.9864 21.2645 10.979 21.2513 10.976C21.2381 10.9729 21.2242 10.9743 21.2119 10.98C20.8351 11.1512 20.4383 11.2745 20.0309 11.347C20.4671 11.0106 20.7891 10.548 20.9529 10.022C20.9568 10.0096 20.9569 9.99625 20.9531 9.98377C20.9494 9.97129 20.942 9.96022 20.9319 9.952C20.922 9.94398 20.9099 9.93919 20.8972 9.9383C20.8845 9.9374 20.8718 9.94044 20.8609 9.947C20.3761 10.242 19.8444 10.452 19.2889 10.568C19.0461 10.3105 18.7534 10.1051 18.4286 9.9645C18.1038 9.82386 17.7538 9.75087 17.3999 9.75C16.6968 9.75897 16.0261 10.0463 15.5345 10.5491C15.043 11.0518 14.7709 11.7289 14.7779 12.432C14.7776 12.6092 14.7943 12.786 14.8279 12.96C13.8282 12.8931 12.8537 12.6177 11.9669 12.1515C11.0801 11.6853 10.3007 11.0386 9.67888 10.253C9.67269 10.245 9.66459 10.2387 9.65533 10.2347C9.64606 10.2307 9.63593 10.2291 9.62588 10.23C9.61571 10.2309 9.60591 10.2343 9.59736 10.2399C9.58882 10.2454 9.58178 10.253 9.57688 10.262C9.26101 10.8194 9.15124 11.4701 9.26678 12.1003C9.38232 12.7305 9.71581 13.2999 10.2089 13.709C9.88713 13.6701 9.57621 13.5681 9.29388 13.409C9.28449 13.4035 9.27378 13.4005 9.26288 13.4005C9.25197 13.4005 9.24127 13.4035 9.23188 13.409C9.22254 13.4146 9.21479 13.4225 9.20937 13.432C9.20394 13.4414 9.20102 13.4521 9.20088 13.463V13.497C9.19868 14.0636 9.37577 14.6164 9.70681 15.0762C10.0378 15.536 10.5059 15.8793 11.0439 16.057C10.7548 16.1046 10.4595 16.1002 10.1719 16.044C10.1612 16.0418 10.15 16.0425 10.1397 16.0461C10.1293 16.0496 10.1201 16.0558 10.1129 16.064C10.1056 16.0724 10.1006 16.0825 10.0983 16.0933C10.096 16.1042 10.0966 16.1154 10.0999 16.126C10.2524 16.626 10.5503 17.0693 10.9557 17.3995C11.361 17.7296 11.8554 17.9317 12.3759 17.98C11.5116 18.6315 10.4582 18.9826 9.37588 18.98C9.17534 18.9799 8.97499 18.9679 8.77588 18.944C8.75998 18.94 8.74314 18.9424 8.72895 18.9506C8.71476 18.9588 8.70433 18.9722 8.69988 18.988C8.69497 19.0016 8.69477 19.0165 8.6993 19.0303C8.70383 19.0441 8.71283 19.0559 8.72488 19.064C9.89961 19.8377 11.2752 20.2504 12.6819 20.251C13.6601 20.2488 14.6281 20.0517 15.5293 19.6712C16.4306 19.2907 17.2469 18.7344 17.9307 18.0349C18.6145 17.3353 19.1521 16.5065 19.512 15.5969C19.8719 14.6873 20.0469 13.715 20.0269 12.737C20.0269 12.6343 20.0249 12.532 20.0209 12.43C20.5185 12.0573 20.9467 11.6 21.2859 11.079C21.2952 11.0673 21.3001 11.0528 21.2999 11.0378C21.2998 11.0229 21.2944 11.0085 21.2849 10.997Z" fill="white"/>
    </g>
    <defs>
        <clipPath id="clip0_423_3463">
            <rect width="14" height="14" fill="white" transform="translate(8 8)"/>
        </clipPath>
    </defs>
</svg>
