<svg width="128" height="36" viewBox="0 0 128 36" fill="none" xmlns="http://www.w3.org/2000/svg">
    <g clip-path="url(#clip0_423_3375)">
        <path d="M42.3306 13.2517C42.8348 13.0586 43.434 12.7684 43.9427 12.5753C44.5474 12.2851 45.0462 11.9959 45.6564 11.7057C46.2154 11.3856 46.7538 11.0307 47.2685 10.6431C47.7273 10.2819 48.165 9.89472 48.5794 9.4834H51.5024V27.7444H47.37V14.503C46.7979 14.883 46.1904 15.2067 45.5559 15.4696C44.9007 15.7689 44.2274 16.0269 43.5399 16.242L42.3306 13.2517Z" fill="white"/>
        <path d="M70.7112 18.4605C70.8728 20.9476 70.2373 23.4214 68.8971 25.5226C68.2921 26.2778 67.5251 26.8873 66.6528 27.3061C65.7806 27.725 64.8253 27.9425 63.8577 27.9425C62.89 27.9425 61.9348 27.725 61.0625 27.3061C60.1902 26.8873 59.4232 26.2778 58.8182 25.5226C57.478 23.4214 56.8426 20.9476 57.0042 18.4605C56.9983 17.0896 57.1678 15.7235 57.5084 14.3954C57.7952 13.3188 58.2732 12.3026 58.9197 11.3952C59.4899 10.6031 60.253 9.96993 61.1366 9.55572C62.0157 9.1269 62.9779 8.89565 63.9559 8.8782C64.9304 8.83376 65.9008 9.03152 66.7802 9.45381C67.6596 9.87609 68.4207 10.5097 68.9953 11.2981C70.2069 12.9433 70.7112 15.4603 70.7112 18.4605ZM66.4784 18.4605C66.4972 17.6203 66.4637 16.7797 66.378 15.9436C66.3119 15.2861 66.1769 14.6374 65.9752 14.0081C65.8129 13.5293 65.536 13.0975 65.1686 12.7502C64.8062 12.4335 64.34 12.261 63.8588 12.2658C63.3808 12.2788 62.9204 12.4491 62.549 12.7502C62.1816 13.0975 61.9047 13.5293 61.7424 14.0081C61.493 14.6239 61.3565 15.2795 61.3396 15.9436C61.2518 16.7795 61.2182 17.6203 61.2392 18.4605C61.2182 19.3008 61.2518 20.1416 61.3396 20.9775C61.3953 21.6365 61.5306 22.2864 61.7424 22.913C61.9047 23.3918 62.1816 23.8236 62.549 24.1709C62.9113 24.4877 63.3775 24.6601 63.8588 24.6553C64.3368 24.6423 64.7971 24.472 65.1686 24.1709C65.536 23.8236 65.8129 23.3918 65.9752 22.913C66.1769 22.2837 66.3119 21.635 66.378 20.9775C66.4679 20.1417 66.5015 19.3008 66.4784 18.4605Z" fill="white"/>
        <path d="M86.5788 11.4155C86.7807 12.0919 87.0831 12.9604 87.2839 13.831C87.5862 14.7005 87.7882 15.6671 88.0905 16.6326L88.9975 19.5314C89.2999 20.498 89.6022 21.3675 89.9046 22.2371C90.1065 21.3675 90.4088 20.4009 90.6097 19.3383C90.8105 18.2757 91.114 17.2131 91.3148 16.0533C91.5156 14.8936 91.7175 13.831 91.9195 12.6713C92.1214 11.5115 92.3222 10.4489 92.5242 9.4834H96.9589C96.3542 12.5731 95.5476 15.6627 94.7421 18.759C93.9355 21.9468 93.0284 24.8456 92.021 27.7444H88.0905C87.4858 26.1013 86.7807 24.2663 86.176 22.4302C85.5713 20.594 84.9622 18.759 84.362 16.8268C83.7573 18.663 83.1482 20.498 82.6483 22.4302C82.1484 24.3623 81.4345 26.0053 80.8342 27.7444H76.9037C75.8959 24.9423 74.9889 21.9472 74.1827 18.759C73.376 15.5711 72.5705 12.4793 71.9658 9.4834H76.6003L77.205 12.6713C77.4069 13.831 77.6078 14.8936 77.9101 16.0533C78.112 17.2131 78.4144 18.2757 78.6152 19.3383C78.8119 20.3232 79.0815 21.2921 79.4218 22.2371C79.7242 21.3675 80.0265 20.498 80.4293 19.5314L81.3363 16.6326C81.6386 15.666 81.941 14.7005 82.1429 13.831C82.3449 12.9615 82.6472 12.0919 82.848 11.4155H86.5788Z" fill="white"/>
        <path d="M97.9113 20.582C97.8568 18.4654 98.614 16.4081 100.028 14.8319C100.661 14.2128 101.416 13.7318 102.245 13.4195C103.049 13.1072 103.901 12.9366 104.764 12.9152C105.661 12.8671 106.557 13.0134 107.392 13.3442C108.227 13.6751 108.981 14.1826 109.601 14.8319C110.914 16.3698 111.567 18.3645 111.415 20.3811V21.19C111.432 21.4627 111.398 21.7362 111.315 21.9966H102.046C102.093 22.3999 102.226 22.7884 102.436 23.1364C102.645 23.4843 102.926 23.7838 103.26 24.0148C104.102 24.5434 105.09 24.7907 106.081 24.721C106.824 24.7038 107.565 24.6363 108.298 24.5191C108.921 24.4248 109.53 24.2554 110.112 24.0148L110.616 27.3439C110.325 27.4754 110.021 27.5767 109.709 27.6462L108.496 27.9486C108.035 28.0723 107.561 28.1401 107.084 28.1505C106.585 28.2341 106.079 28.2678 105.573 28.2509C104.402 28.2731 103.238 28.0673 102.145 27.6451C101.232 27.2879 100.407 26.7372 99.7265 26.0308C99.083 25.338 98.601 24.5112 98.3152 23.6098C98.0326 22.6259 97.8965 21.6056 97.9113 20.582ZM107.486 18.9676C107.467 18.6235 107.399 18.2838 107.284 17.9591C107.155 17.6362 106.986 17.331 106.78 17.0509C106.585 16.7656 106.301 16.5526 105.973 16.4451C105.596 16.2627 105.175 16.1926 104.759 16.2432C104.347 16.2524 103.938 16.3204 103.546 16.4451C103.259 16.6224 102.989 16.8251 102.739 17.0509C102.513 17.3174 102.341 17.626 102.235 17.9591C102.134 18.3629 102.033 18.6653 101.932 18.9676H107.486Z" fill="white"/>
        <path d="M128 20.7607C127.996 21.7852 127.826 22.8022 127.496 23.772C127.185 24.6588 126.667 25.4584 125.984 26.1036C125.339 26.7671 124.544 27.2669 123.667 27.5613C122.623 27.8875 121.535 28.0512 120.441 28.0468C119.936 28.0628 119.429 28.0303 118.93 27.9497C118.425 27.8526 117.826 27.8526 117.318 27.7555L115.806 27.4642C115.302 27.3671 114.899 27.2699 114.496 27.1728V7.74222L118.629 7.0625V13.9602C119.577 13.5221 120.607 13.2904 121.652 13.2804C122.58 13.282 123.501 13.4464 124.373 13.7659C125.121 14.1367 125.802 14.6293 126.389 15.2236C126.93 15.922 127.341 16.7117 127.603 17.5552C127.889 18.5989 128.023 19.6786 128 20.7607ZM123.868 20.6636C123.868 18.1378 122.86 16.8744 120.945 16.8744C120.534 16.8912 120.126 16.9564 119.731 17.0686C119.375 17.1378 119.034 17.2693 118.723 17.457V24.646C118.925 24.646 119.228 24.743 119.53 24.743H120.537C121.01 24.7637 121.482 24.6786 121.918 24.4938C122.354 24.309 122.743 24.0292 123.057 23.6749C123.594 22.7628 123.874 21.7222 123.868 20.6636Z" fill="white"/>
        <path d="M5.46215 12.1314L17.1399 0.227366C17.2112 0.155337 17.296 0.0981523 17.3894 0.0591241C17.4829 0.0200959 17.5832 0 17.6845 0C17.7858 0 17.8861 0.0200959 17.9795 0.0591241C18.073 0.0981523 18.1578 0.155337 18.229 0.227366L35.0522 17.4787C35.1953 17.628 35.2752 17.8269 35.2752 18.0337C35.2752 18.2406 35.1953 18.4394 35.0522 18.5887L34.9529 18.6892C34.6241 19.0251 34.2315 19.2921 33.7982 19.4743C33.3648 19.6566 32.8994 19.7504 32.4293 19.7504C31.9592 19.7504 31.4938 19.6566 31.0605 19.4743C30.6271 19.2921 30.2345 19.0251 29.9057 18.6892L18.0304 6.58323C17.9592 6.5112 17.8744 6.45401 17.7809 6.41499C17.6875 6.37596 17.5872 6.35586 17.4859 6.35586C17.3846 6.35586 17.2843 6.37596 17.1908 6.41499C17.0973 6.45401 17.0125 6.5112 16.9413 6.58323L10.3107 13.343C9.98189 13.6789 9.58929 13.9459 9.15595 14.1281C8.7226 14.3104 8.25722 14.4042 7.78712 14.4042C7.31701 14.4042 6.85163 14.3104 6.41828 14.1281C5.98494 13.9459 5.59234 13.6789 5.26353 13.343C5.19503 13.1402 5.17731 12.9237 5.21194 12.7124C5.24657 12.5012 5.33248 12.3017 5.46215 12.1314Z" fill="white"/>
        <path d="M29.9124 23.1777L18.2346 35.0828C18.1634 35.1548 18.0786 35.212 17.9851 35.2511C17.8916 35.2901 17.7913 35.3102 17.69 35.3102C17.5887 35.3102 17.4885 35.2901 17.395 35.2511C17.3015 35.212 17.2167 35.1548 17.1455 35.0828L0.223008 17.8315C0.0798962 17.6822 0 17.4833 0 17.2765C0 17.0696 0.0798962 16.8708 0.223008 16.7214C0.551822 16.3855 0.944414 16.1185 1.37776 15.9363C1.81111 15.754 2.27648 15.6602 2.74659 15.6602C3.2167 15.6602 3.68208 15.754 4.11542 15.9363C4.54877 16.1185 4.94137 16.3855 5.27018 16.7214L17.0473 28.7269C17.1185 28.799 17.2033 28.8562 17.2968 28.8952C17.3903 28.9342 17.4905 28.9543 17.5918 28.9543C17.6931 28.9543 17.7934 28.9342 17.8869 28.8952C17.9804 28.8562 18.0652 28.799 18.1364 28.7269L24.767 21.9672C25.0958 21.6312 25.4884 21.3643 25.9218 21.1821C26.3551 20.9998 26.8205 20.9059 27.2906 20.9059C27.7607 20.9059 28.2261 20.9998 28.6594 21.1821C29.0928 21.3643 29.4854 21.6312 29.8142 21.9672C29.9018 22.0391 29.9741 22.1279 30.0266 22.2283C30.0792 22.3287 30.111 22.4387 30.1202 22.5516C30.1294 22.6646 30.1157 22.7782 30.08 22.8858C30.0443 22.9934 29.9873 23.0926 29.9124 23.1777Z" fill="white"/>
        <path d="M18.8415 17.3025L15.9184 14.3773C15.5293 13.9495 15.3137 13.392 15.3137 12.8137C15.3137 12.2354 15.5293 11.6779 15.9184 11.2501L16.0188 11.1497C16.2184 10.9349 16.4601 10.7635 16.7288 10.6464C16.9976 10.5292 17.2876 10.4687 17.5808 10.4688C17.8739 10.4687 18.164 10.5292 18.4327 10.6464C18.7015 10.7635 18.9432 10.9349 19.1427 11.1497L25.1896 17.2032C25.335 17.3513 25.4165 17.5506 25.4165 17.7582C25.4165 17.9658 25.335 18.1651 25.1896 18.3133L19.3413 24.1615C19.1418 24.3763 18.9001 24.5477 18.6313 24.6648C18.3626 24.782 18.0726 24.8425 17.7794 24.8425C17.4862 24.8425 17.1962 24.782 16.9274 24.6648C16.6587 24.5477 16.417 24.3763 16.2174 24.1615C16.0029 23.9615 15.8317 23.7195 15.7147 23.4505C15.5977 23.1815 15.5373 22.8913 15.5373 22.598C15.5373 22.3046 15.5977 22.0144 15.7147 21.7454C15.8317 21.4764 16.0029 21.2344 16.2174 21.0344L18.9386 18.31C19.0443 18.1577 19.0926 17.9729 19.0749 17.7884C19.0571 17.6039 18.9744 17.4317 18.8415 17.3025Z" fill="white"/>
        <path d="M15.3523 17L14.3449 15.9915C14.1454 15.7767 13.9037 15.6053 13.6349 15.4882C13.3662 15.371 13.0761 15.3105 12.783 15.3105C12.4898 15.3105 12.1998 15.371 11.931 15.4882C11.6623 15.6053 11.4206 15.7767 11.221 15.9915C10.8319 16.4193 10.6163 16.9768 10.6163 17.5551C10.6163 18.1333 10.8319 18.6908 11.221 19.1186C11.4206 19.3334 11.6623 19.5048 11.931 19.6219C12.1998 19.7391 12.4898 19.7996 12.783 19.7996C13.0761 19.7996 13.3662 19.7391 13.6349 19.6219C13.9037 19.5048 14.1454 19.3334 14.3449 19.1186L15.3523 18.1101C15.4978 17.962 15.5793 17.7627 15.5793 17.5551C15.5793 17.3475 15.4978 17.1482 15.3523 17Z" fill="white"/>
    </g>
    <defs>
        <clipPath id="clip0_423_3375">
            <rect width="128" height="36" fill="white"/>
        </clipPath>
    </defs>
</svg>
