<svg width="30" height="30" viewBox="0 0 30 30" fill="none" xmlns="http://www.w3.org/2000/svg">
    <rect width="30" height="30" rx="15" fill="white" fill-opacity="0.15"/>
    <g clip-path="url(#clip0_423_3470)">
        <path d="M20.9159 11.736C20.8638 11.4 20.7081 11.0887 20.4706 10.8454C20.2331 10.6021 19.9255 10.4391 19.5909 10.379C18.0664 10.2188 16.5334 10.1547 15.0009 10.187C13.4687 10.1544 11.936 10.2182 10.4119 10.378C10.0777 10.4387 9.7707 10.6022 9.53374 10.8456C9.29678 11.089 9.14163 11.4002 9.0899 11.736C8.91186 12.814 8.84051 13.9069 8.8769 14.999C8.84075 16.0914 8.91243 17.1846 9.0909 18.263C9.1428 18.5989 9.29828 18.9102 9.53564 19.1534C9.773 19.3967 10.0804 19.5598 10.4149 19.62C11.939 19.7802 13.4717 19.8443 15.0039 19.812C16.5357 19.8443 18.0681 19.7801 19.5919 19.62C19.9264 19.5597 20.2337 19.3965 20.471 19.1533C20.7083 18.91 20.8639 18.5988 20.9159 18.263C21.0944 17.1847 21.1661 16.0914 21.1299 14.999C21.167 13.9067 21.0963 12.8134 20.9189 11.735L20.9159 11.736ZM13.4159 17.143V12.576L17.3159 14.867L13.4159 17.143Z" fill="white"/>
    </g>
    <defs>
        <clipPath id="clip0_423_3470">
            <rect width="14" height="14" fill="white" transform="translate(8 8)"/>
        </clipPath>
    </defs>
</svg>
