<svg width="30" height="30" viewBox="0 0 30 30" fill="none" xmlns="http://www.w3.org/2000/svg">
    <path d="M14.9999 1.8999L4 7.42528V12.252C4 18.9079 8.19166 25.0938 14.6697 28.0025L14.9999 28.1423L15.3302 28.0025C21.8082 25.0938 25.9999 18.9079 25.9999 12.252V7.42528L14.9999 1.8999ZM20.2205 12.9507L14.1362 18.9206L10.5415 15.3767C10.1986 15.0465 10.1986 14.5003 10.5288 14.1573C10.8591 13.8144 11.4053 13.8144 11.7482 14.1446L14.1489 16.4945L19.0265 11.6931C19.3694 11.3629 19.9156 11.3629 20.2459 11.7059C20.5634 12.0742 20.5507 12.6204 20.2205 12.9507Z" fill="#3944EE"/>
</svg>
