<svg width="20" height="20" viewBox="0 0 20 20" fill="none" xmlns="http://www.w3.org/2000/svg">
    <path d="M6.78571 2.5H13.2143C15.5821 2.5 17.5 4.41786 17.5 6.78571V13.2143C17.5 15.5821 15.5821 17.5 13.2143 17.5H6.78571C4.41786 17.5 2.5 15.5821 2.5 13.2143V6.78571C2.5 4.41786 4.41786 2.5 6.78571 2.5Z" fill="black"/>
    <path d="M12.3399 13.19H7.4599C7.1499 13.19 6.8999 13.44 6.8999 13.75V13.86C6.8999 14.17 7.1499 14.42 7.4599 14.42H12.3399C12.6499 14.42 12.8999 14.17 12.8999 13.86V13.75C12.8999 13.44 12.6499 13.19 12.3399 13.19Z" fill="white"/>
    <path d="M7.62992 10.09L9.50992 11.8L9.89992 12.15L10.2699 11.8L12.6899 9.62C12.9299 9.4 12.9699 9.03 12.7399 8.76C12.5299 8.51 12.1599 8.47 11.9099 8.69L10.4799 10V5.75C10.4799 5.41 10.2199 5.13 9.89992 5.13C9.57992 5.13 9.31992 5.41 9.31992 5.75V10L7.86992 8.7C7.62992 8.48 7.25992 8.50001 7.04992 8.76C6.82992 9.02 6.85992 9.4 7.09992 9.62L7.62992 10.09Z" fill="white"/>
</svg>
