<svg width="17" height="16" viewBox="0 0 17 16" fill="none" xmlns="http://www.w3.org/2000/svg">
    <path d="M12.9572 1.20001H4.04291C2.5191 1.20001 1.30005 2.42939 1.30005 3.96611V9.57516C1.30005 10.8814 2.29052 12.0339 3.50957 12.2644V14.8L8.15719 12.3413H12.9572C14.481 12.3413 15.7 11.1119 15.7 9.57516V3.96611C15.7 2.42939 14.481 1.20001 12.9572 1.20001ZM6.32862 7.03956C6.25243 7.42374 5.87148 7.73109 5.49052 7.73109C5.03338 7.73109 4.72862 7.42374 4.65243 6.96273C4.65243 6.88589 4.65243 6.88589 4.65243 6.80905C4.65243 6.34804 5.03338 5.88702 5.56672 5.88702C6.02386 5.88702 6.481 6.2712 6.481 6.80905C6.32862 6.88589 6.32862 6.96272 6.32862 7.03956ZM9.37624 7.03956C9.30005 7.42374 8.9191 7.73109 8.53814 7.73109C8.081 7.73109 7.77624 7.42374 7.70005 6.96273C7.70005 6.88589 7.70005 6.88589 7.70005 6.80905C7.70005 6.34804 8.081 5.88702 8.61433 5.88702C9.07148 5.88702 9.52862 6.2712 9.52862 6.80905C9.37624 6.88589 9.37624 6.96272 9.37624 7.03956ZM12.4239 7.03956C12.3477 7.42374 11.9667 7.73109 11.5858 7.73109C11.1286 7.73109 10.8239 7.42374 10.7477 6.96273C10.7477 6.88589 10.7477 6.88589 10.7477 6.80905C10.7477 6.34804 11.1286 5.88702 11.662 5.88702C12.1191 5.88702 12.5762 6.2712 12.5762 6.80905C12.4239 6.88589 12.4239 6.96272 12.4239 7.03956Z" fill="black"/>
    <path d="M6.66411 6.80697C6.66411 7.36311 6.21327 7.81395 5.65713 7.81395C5.10099 7.81395 4.65015 7.36311 4.65015 6.80697C4.65015 6.25083 5.10099 5.79999 5.65713 5.79999C6.21327 5.79999 6.66411 6.25083 6.66411 6.80697Z" fill="white"/>
    <path d="M9.65166 6.80697C9.65166 7.36311 9.20082 7.81395 8.64468 7.81395C8.08854 7.81395 7.6377 7.36311 7.6377 6.80697C7.6377 6.25083 8.08854 5.79999 8.64468 5.79999C9.20082 5.79999 9.65166 6.25083 9.65166 6.80697Z" fill="white"/>
    <path d="M12.6329 6.80697C12.6329 7.36311 12.182 7.81395 11.6259 7.81395C11.0697 7.81395 10.6189 7.36311 10.6189 6.80697C10.6189 6.25083 11.0697 5.79999 11.6259 5.79999C12.182 5.79999 12.6329 6.25083 12.6329 6.80697Z" fill="white"/>
</svg>
