<svg width="20" height="20" viewBox="0 0 20 20" fill="none" xmlns="http://www.w3.org/2000/svg">
    <path d="M15.9049 11.1003H4.0937C3.80363 11.1003 3.52544 10.9847 3.32034 10.779C3.11523 10.5732 3 10.2942 3 10.0033C3 9.71231 3.11523 9.43328 3.32034 9.22756C3.52544 9.02183 3.80363 8.90625 4.0937 8.90625H15.9036C16.1937 8.90625 16.4719 9.02183 16.677 9.22756C16.8821 9.43328 16.9973 9.71231 16.9973 10.0033C16.9973 10.2942 16.8821 10.5732 16.677 10.779C16.4719 10.9847 16.1949 11.1003 15.9049 11.1003Z" fill="black"/>
    <path d="M15.9049 15.9987H4.0937C3.80363 15.9987 3.52544 15.8831 3.32034 15.6774C3.11523 15.4717 3 15.1926 3 14.9017C3 14.6108 3.11523 14.3317 3.32034 14.126C3.52544 13.9203 3.80363 13.8047 4.0937 13.8047H15.9036C16.1937 13.8047 16.4719 13.9203 16.677 14.126C16.8821 14.3317 16.9973 14.6108 16.9973 14.9017C16.9973 15.1926 16.8821 15.4717 16.677 15.6774C16.4719 15.8831 16.1949 15.9987 15.9049 15.9987Z" fill="black"/>
    <path d="M15.9049 6.19403H4.0937C3.80363 6.19403 3.52544 6.07845 3.32034 5.87272C3.11523 5.66699 3 5.38796 3 5.09701C3 4.80607 3.11523 4.52704 3.32034 4.32131C3.52544 4.11558 3.80363 4 4.0937 4H15.9036C16.1937 4 16.4719 4.11558 16.677 4.32131C16.8821 4.52704 16.9973 4.80607 16.9973 5.09701C16.9973 5.38796 16.8821 5.66699 16.677 5.87272C16.4719 6.07845 16.1949 6.19403 15.9049 6.19403Z" fill="black"/>
</svg>
