<svg width="14" height="14" viewBox="0 0 14 14" fill="none" xmlns="http://www.w3.org/2000/svg">
<path d="M11.1575 4.66408C11.0855 4.49228 10.9489 4.35566 10.7772 4.28369C10.6932 4.23614 10.5998 4.20764 10.5035 4.2002H7.21058C7.02607 4.2002 6.84912 4.27351 6.71865 4.404C6.58818 4.53449 6.51488 4.71147 6.51488 4.89602C6.51488 5.08056 6.58818 5.25755 6.71865 5.38804C6.84912 5.51853 7.02607 5.59184 7.21058 5.59184H8.8385L4.40462 10.0126C4.33955 10.0769 4.28789 10.1535 4.25263 10.2379C4.21737 10.3223 4.19922 10.4129 4.19922 10.5044C4.19922 10.5958 4.21737 10.6864 4.25263 10.7708C4.28789 10.8552 4.33955 10.9318 4.40462 10.9961C4.46869 11.0613 4.54523 11.113 4.62969 11.1481C4.71415 11.1832 4.8048 11.2009 4.89624 11.2002C4.98768 11.2009 5.07833 11.1832 5.16279 11.1481C5.24725 11.113 5.32379 11.0613 5.38786 10.9961L9.80783 6.57527V8.18958C9.80783 8.37413 9.88113 8.55111 10.0116 8.6816C10.1421 8.81209 10.319 8.8854 10.5035 8.8854C10.688 8.8854 10.865 8.81209 10.9955 8.6816C11.1259 8.55111 11.1992 8.37413 11.1992 8.18958V4.89602C11.1971 4.81704 11.1831 4.73883 11.1575 4.66408Z" fill="black"/>
</svg>
