<svg width="24" height="24" viewBox="0 0 32 32" fill="none" xmlns="http://www.w3.org/2000/svg">
<path d="M24.6433 16.1513L15.6262 7L5.60708 7.14527C4.89143 7.14527 4.31891 7.72629 4.31891 8.45258L4.17578 18.6207L13.1929 27.772C14.1949 28.7888 15.483 29.2246 16.7712 29.2246C18.0594 29.2246 19.3475 28.7888 20.3494 27.772L24.6433 23.4142C26.6471 21.3806 26.6471 18.1849 24.6433 16.1513ZM10.9029 15.7155C9.90097 15.7155 9.04219 14.844 9.04219 13.8272C9.04219 12.8104 9.90097 11.9388 10.9029 11.9388C11.9048 11.9388 12.7636 12.8104 12.7636 13.8272C12.7636 14.844 12.0479 15.7155 10.9029 15.7155Z" fill="black"/>
<path d="M26.9232 14.8435C26.6369 14.8435 26.4938 14.6983 26.2075 14.553L16.4747 4.67545L7.17128 4.82072C6.59876 4.82072 6.3125 4.38493 6.3125 3.94916C6.3125 3.36813 6.74189 2.93238 7.17128 2.93238L17.1904 2.78711L27.4957 13.2457C27.9251 13.6815 27.9251 14.2625 27.4957 14.553C27.4957 14.6983 27.2094 14.8435 26.9232 14.8435Z" fill="black"/>
</svg>
