<svg width="16" height="16" viewBox="0 0 16 16" fill="none" xmlns="http://www.w3.org/2000/svg">
    <path d="M11.2387 12.4648H4.60149C4.17986 12.4648 3.83984 12.8049 3.83984 13.2265V13.3761C3.83984 13.7977 4.17986 14.1377 4.60149 14.1377H11.2387C11.6603 14.1377 12.0003 13.7977 12.0003 13.3761V13.2265C12.0003 12.8049 11.6603 12.4648 11.2387 12.4648Z" fill="black"/>
    <path d="M4.83498 8.24891L7.39192 10.5746L7.92235 11.0507L8.42558 10.5746L11.717 7.60967C12.0434 7.31046 12.0978 6.80723 11.785 6.44001C11.4994 6.09999 10.9961 6.04559 10.6561 6.3448L8.71119 8.1265V2.34618C8.71119 1.88375 8.35757 1.50293 7.92235 1.50293C7.48712 1.50293 7.1335 1.88375 7.1335 2.34618V8.1265L5.16139 6.3584C4.83498 6.05919 4.33175 6.08639 4.04613 6.44001C3.74691 6.79363 3.78772 7.31046 4.11413 7.60967L4.83498 8.24891Z" fill="black"/>
</svg>
