<svg width="18" height="18" viewBox="0 0 18 18" fill="none" xmlns="http://www.w3.org/2000/svg">
    <path d="M12.2364 13.4531H5.5833C5.16066 13.4531 4.81982 13.794 4.81982 14.2166V14.3666C4.81982 14.7892 5.16066 15.13 5.5833 15.13H12.2364C12.6591 15.13 12.9999 14.7892 12.9999 14.3666V14.2166C12.9999 13.794 12.6591 13.4531 12.2364 13.4531Z" fill="black" fill-opacity="0.5"/>
    <path d="M5.81514 9.22704L8.37823 11.5584L8.90994 12.0355L9.41438 11.5584L12.7137 8.58627C13.0409 8.28633 13.0954 7.7819 12.7818 7.41379C12.4955 7.07296 11.9911 7.01842 11.6503 7.31836L9.70068 9.10434V3.31012C9.70068 2.84658 9.34621 2.46484 8.90994 2.46484C8.47367 2.46484 8.1192 2.84658 8.1192 3.31012V9.10434L6.14234 7.33199C5.81514 7.03205 5.3107 7.05932 5.0244 7.41379C4.72446 7.76826 4.76536 8.28633 5.09257 8.58627L5.81514 9.22704Z" fill="black" fill-opacity="0.5"/>
</svg>
