<svg width="14" height="14" viewBox="0 0 14 14" fill="none" xmlns="http://www.w3.org/2000/svg">
    <path d="M11.1582 4.66408C11.0863 4.49228 10.9497 4.35566 10.7779 4.28369C10.6939 4.23614 10.6005 4.20764 10.5043 4.2002H7.21131C7.0268 4.2002 6.84985 4.27351 6.71938 4.404C6.58891 4.53449 6.51562 4.71147 6.51562 4.89602C6.51562 5.08056 6.58891 5.25755 6.71938 5.38804C6.84985 5.51853 7.0268 5.59184 7.21131 5.59184H8.83923L4.40535 10.0126C4.34028 10.0769 4.28862 10.1535 4.25336 10.2379C4.21811 10.3223 4.19995 10.4129 4.19995 10.5044C4.19995 10.5958 4.21811 10.6864 4.25336 10.7708C4.28862 10.8552 4.34028 10.9318 4.40535 10.9961C4.46942 11.0613 4.54596 11.113 4.63042 11.1481C4.71488 11.1832 4.80553 11.2009 4.89697 11.2002C4.98841 11.2009 5.07906 11.1832 5.16352 11.1481C5.24798 11.113 5.32452 11.0613 5.38859 10.9961L9.80856 6.57527V8.18958C9.80856 8.37413 9.88186 8.55111 10.0123 8.6816C10.1428 8.81209 10.3197 8.8854 10.5043 8.8854C10.6888 8.8854 10.8657 8.81209 10.9962 8.6816C11.1267 8.55111 11.2 8.37413 11.2 8.18958V4.89602C11.1979 4.81704 11.1838 4.73883 11.1582 4.66408Z" fill="black"/>
</svg>
