<svg width="48" height="48" viewBox="0 0 48 48" fill="none" xmlns="http://www.w3.org/2000/svg">
<rect width="48" height="48" rx="8" fill="black"/>
<g clip-path="url(#clip0_1495_11263)">
<mask id="mask0_1495_11263" style="mask-type:luminance" maskUnits="userSpaceOnUse" x="12" y="12" width="24" height="24">
<path d="M36 12H12V36H36V12Z" fill="white"/>
</mask>
<g mask="url(#mask0_1495_11263)">
<path d="M17.2679 26.89C16.0267 25.6041 15.333 23.8868 15.333 22.0996C15.333 20.3124 16.0267 18.595 17.2679 17.3092C17.8789 16.6839 18.6087 16.1871 19.4144 15.8479C20.2202 15.5087 21.0856 15.334 21.9599 15.334C22.8341 15.334 23.6995 15.5087 24.5053 15.8479C25.311 16.1871 26.0408 16.6839 26.6519 17.3092C27.65 18.3465 28.3016 19.668 28.5165 21.0914C28.7315 22.5148 28.4992 23.9698 27.8519 25.2556L32.1659 29.6596C32.4869 29.996 32.6661 30.4432 32.6661 30.9082C32.6661 31.3732 32.4869 31.8204 32.1659 32.1568C32.0059 32.3185 31.8155 32.4469 31.6056 32.5346C31.3957 32.6222 31.1705 32.6673 30.9431 32.6673C30.7156 32.6673 30.4904 32.6222 30.2805 32.5346C30.0706 32.4469 29.8802 32.3185 29.7203 32.1568L25.4951 27.8428C24.2232 28.6539 22.7106 29.002 21.2121 28.8284C19.7136 28.6549 18.3207 27.9703 17.2679 26.89ZM25.3619 25.6192C26.2808 24.6875 26.7959 23.4316 26.7959 22.123C26.7959 20.8144 26.2808 19.5584 25.3619 18.6268C24.9168 18.1689 24.3845 17.8049 23.7964 17.5563C23.2082 17.3078 22.5762 17.1797 21.9377 17.1797C21.2991 17.1797 20.6671 17.3078 20.0789 17.5563C19.4908 17.8049 18.9585 18.1689 18.5135 18.6268C17.6042 19.5635 17.0957 20.8176 17.0957 22.123C17.0957 23.4284 17.6042 24.6825 18.5135 25.6192C18.9585 26.077 19.4909 26.4409 20.0791 26.6894C20.6673 26.9378 21.2994 27.0658 21.9379 27.0657C22.5764 27.0656 23.2084 26.9374 23.7966 26.6887C24.3847 26.4401 24.9169 26.0772 25.3619 25.6192Z" fill="white"/>
</g>
</g>
<defs>
<clipPath id="clip0_1495_11263">
<rect width="24" height="24" fill="white" transform="translate(12 12)"/>
</clipPath>
</defs>
</svg>
