<svg width="36" height="36" viewBox="0 0 36 36" fill="none" xmlns="http://www.w3.org/2000/svg">
    <path d="M14.25 8C14.25 6.61929 15.3693 5.5 16.75 5.5C18.1308 5.5 19.25 6.61929 19.25 8V10.5H25.5V16.75H28C29.3808 16.75 30.5 17.8693 30.5 19.25C30.5 20.6307 29.3808 21.75 28 21.75H25.5V28H19.25V25.5C19.25 24.1193 18.1308 23 16.75 23C15.3693 23 14.25 24.1193 14.25 25.5V28H8.00002V21.75H10.5C11.8807 21.75 13 20.6307 13 19.25C13 17.8693 11.8807 16.75 10.5 16.75H8.00002V10.5H14.25V8Z" stroke="black" stroke-opacity="0.3" stroke-width="2" stroke-linecap="round" stroke-linejoin="round"/>
</svg>
