<svg width="64" height="64" viewBox="0 0 64 64" fill="none" xmlns="http://www.w3.org/2000/svg">
    <rect width="64" height="64" rx="8" fill="black"/>
    <g clip-path="url(#clip0_1506_12002)">
        <mask id="mask0_1506_12002" style="mask-type:luminance" maskUnits="userSpaceOnUse" x="20" y="20" width="24" height="24">
            <path d="M44 20H20V44H44V20Z" fill="white"/>
        </mask>
        <g mask="url(#mask0_1506_12002)">
            <path d="M25.2681 34.89C24.0269 33.6041 23.3333 31.8868 23.3333 30.0996C23.3333 28.3124 24.0269 26.595 25.2681 25.3092C25.8791 24.6839 26.6089 24.1871 27.4147 23.8479C28.2204 23.5087 29.0859 23.334 29.9601 23.334C30.8343 23.334 31.6998 23.5087 32.5055 23.8479C33.3112 24.1871 34.0411 24.6839 34.6521 25.3092C35.6503 26.3465 36.3018 27.668 36.5168 29.0914C36.7317 30.5148 36.4995 31.9698 35.8521 33.2556L40.1661 37.6596C40.4872 37.996 40.6663 38.4432 40.6663 38.9082C40.6663 39.3732 40.4872 39.8204 40.1661 40.1568C40.0062 40.3185 39.8157 40.4469 39.6059 40.5346C39.396 40.6222 39.1708 40.6673 38.9433 40.6673C38.7158 40.6673 38.4906 40.6222 38.2807 40.5346C38.0708 40.4469 37.8804 40.3185 37.7205 40.1568L33.4953 35.8428C32.2234 36.6539 30.7109 37.002 29.2124 36.8284C27.7139 36.6549 26.3209 35.9703 25.2681 34.89ZM33.3621 33.6192C34.281 32.6875 34.7962 31.4316 34.7962 30.123C34.7962 28.8144 34.281 27.5584 33.3621 26.6268C32.9171 26.1689 32.3848 25.8049 31.7966 25.5563C31.2085 25.3078 30.5764 25.1797 29.9379 25.1797C29.2994 25.1797 28.6673 25.3078 28.0792 25.5563C27.491 25.8049 26.9587 26.1689 26.5137 26.6268C25.6045 27.5635 25.0959 28.8176 25.0959 30.123C25.0959 31.4284 25.6045 32.6825 26.5137 33.6192C26.9588 34.077 27.4912 34.4409 28.0794 34.6894C28.6676 34.9378 29.2996 35.0658 29.9381 35.0657C30.5767 35.0656 31.2087 34.9374 31.7968 34.6887C32.3849 34.4401 32.9172 34.0772 33.3621 33.6192Z" fill="white"/>
        </g>
    </g>
    <defs>
        <clipPath id="clip0_1506_12002">
            <rect width="24" height="24" fill="white" transform="translate(20 20)"/>
        </clipPath>
    </defs>
</svg>
