<svg width="20" height="20" viewBox="0 0 20 20" fill="none" xmlns="http://www.w3.org/2000/svg" fill-opacity="0.1">
    <path fill-rule="evenodd" clip-rule="evenodd" d="M5.77407 4.22599C5.34644 3.79837 4.65313 3.79837 4.2255 4.22599C3.79788 4.65362 3.79788 5.34693 4.2255 5.77456L8.22419 9.77324L4.2255 13.7719C3.79788 14.1996 3.79788 14.8929 4.2255 15.3205C4.65313 15.7481 5.34644 15.7481 5.77407 15.3205L9.77276 11.3218L13.7714 15.3205C14.1991 15.7481 14.8924 15.7481 15.32 15.3205C15.7476 14.8929 15.7476 14.1996 15.32 13.7719L11.3213 9.77324L15.32 5.77456C15.7476 5.34693 15.7476 4.65362 15.32 4.22599C14.8924 3.79837 14.1991 3.79837 13.7714 4.22599L9.77276 8.22468L5.77407 4.22599Z" fill="black" fill-opacity="inherit"/>
</svg>
