<svg width="16" height="16" viewBox="0 0 16 16" fill="none" xmlns="http://www.w3.org/2000/svg">
    <mask id="mask0_1048_17537" style="mask-type:luminance" maskUnits="userSpaceOnUse" x="0" y="0" width="16" height="16">
        <path d="M16 0H0V16H16V0Z" fill="white"/>
    </mask>
    <g mask="url(#mask0_1048_17537)">
        <path d="M3.512 9.92666C2.68454 9.06943 2.22211 7.9245 2.22211 6.73306C2.22211 5.54162 2.68454 4.39669 3.512 3.53946C3.91935 3.12263 4.4059 2.79141 4.94307 2.56528C5.48023 2.33915 6.05718 2.22266 6.64 2.22266C7.22283 2.22266 7.79977 2.33915 8.33694 2.56528C8.8741 2.79141 9.36066 3.12263 9.768 3.53946C10.4334 4.23097 10.8678 5.11201 11.0111 6.06094C11.1544 7.00987 10.9996 7.97989 10.568 8.83706L13.444 11.7731C13.6581 11.9973 13.7775 12.2954 13.7775 12.6055C13.7775 12.9155 13.6581 13.2136 13.444 13.4379C13.3374 13.5457 13.2104 13.6313 13.0705 13.6897C12.9306 13.7481 12.7804 13.7782 12.6288 13.7782C12.4772 13.7782 12.327 13.7481 12.1871 13.6897C12.0472 13.6313 11.9202 13.5457 11.8136 13.4379L8.9968 10.5619C8.14887 11.1026 7.14052 11.3347 6.14152 11.219C5.14253 11.1033 4.2139 10.6469 3.512 9.92666ZM8.908 9.07946C9.52061 8.45836 9.86406 7.62105 9.86406 6.74866C9.86406 5.87628 9.52061 5.03897 8.908 4.41786C8.61133 4.11259 8.25645 3.86992 7.86435 3.70421C7.47224 3.53851 7.05088 3.45313 6.6252 3.45313C6.19952 3.45313 5.77816 3.53851 5.38606 3.70421C4.99396 3.86992 4.63907 4.11259 4.3424 4.41786C3.73624 5.04233 3.3972 5.87838 3.3972 6.74866C3.3972 7.61894 3.73624 8.45499 4.3424 9.07946C4.63913 9.38468 4.99405 9.62729 5.38619 9.79293C5.77832 9.95857 6.19969 10.0439 6.62537 10.0438C7.05105 10.0437 7.4724 9.95827 7.86447 9.79249C8.25654 9.62672 8.61139 9.38479 8.908 9.07946Z" fill="black"/>
    </g>
</svg>
