<svg width="32" height="32" viewBox="0 0 32 32" fill="none" xmlns="http://www.w3.org/2000/svg">
    <path d="M16.0625 27.9923C14.9307 27.9923 13.9246 27.0845 13.9246 25.7876V6.20469C13.9246 5.0375 14.8049 4 16.0625 4C17.3201 4 18.2004 4.90781 18.2004 6.20469V25.7876C18.0747 27.0845 17.1944 27.9923 16.0625 27.9923Z" fill="black"/>
    <path d="M23.8623 27.986C22.7305 27.986 21.7244 27.0782 21.7244 25.7813V14.3688C21.7244 13.2016 22.6047 12.1641 23.8623 12.1641C25.1199 12.1641 26.0002 13.0719 26.0002 14.3688V25.7813C26.0002 27.0782 24.9942 27.986 23.8623 27.986Z" fill="black"/>
    <path d="M8.13794 27.986C7.00609 27.986 6 27.0782 6 25.7813V14.3688C6 13.2016 6.88033 12.1641 8.13794 12.1641C9.39555 12.1641 10.2759 13.0719 10.2759 14.3688V25.7813C10.1501 27.0782 9.26979 27.986 8.13794 27.986Z" fill="black"/>
</svg>
