<svg width="17" height="16" viewBox="0 0 17 16" fill="none" xmlns="http://www.w3.org/2000/svg">
    <path d="M12.9572 1.2002H4.04291C2.5191 1.2002 1.30005 2.42957 1.30005 3.9663V9.57534C1.30005 10.8816 2.29052 12.0341 3.50957 12.2646V14.8002L8.15719 12.3414H12.9572C14.481 12.3414 15.7 11.1121 15.7 9.57534V3.9663C15.7 2.42957 14.481 1.2002 12.9572 1.2002ZM6.32862 7.03974C6.25243 7.42392 5.87148 7.73127 5.49052 7.73127C5.03338 7.73127 4.72862 7.42392 4.65243 6.96291C4.65243 6.88607 4.65243 6.88607 4.65243 6.80924C4.65243 6.34822 5.03338 5.8872 5.56672 5.8872C6.02386 5.8872 6.481 6.27138 6.481 6.80924C6.32862 6.88607 6.32862 6.96291 6.32862 7.03974ZM9.37624 7.03974C9.30005 7.42392 8.9191 7.73127 8.53814 7.73127C8.081 7.73127 7.77624 7.42392 7.70005 6.96291C7.70005 6.88607 7.70005 6.88607 7.70005 6.80924C7.70005 6.34822 8.081 5.8872 8.61433 5.8872C9.07148 5.8872 9.52862 6.27138 9.52862 6.80924C9.37624 6.88607 9.37624 6.96291 9.37624 7.03974ZM12.4239 7.03974C12.3477 7.42392 11.9667 7.73127 11.5858 7.73127C11.1286 7.73127 10.8239 7.42392 10.7477 6.96291C10.7477 6.88607 10.7477 6.88607 10.7477 6.80924C10.7477 6.34822 11.1286 5.8872 11.662 5.8872C12.1191 5.8872 12.5762 6.27138 12.5762 6.80924C12.4239 6.88607 12.4239 6.96291 12.4239 7.03974Z" fill="black"/>
    <path d="M6.66411 6.80727C6.66411 7.36341 6.21327 7.81425 5.65713 7.81425C5.10099 7.81425 4.65015 7.36341 4.65015 6.80727C4.65015 6.25113 5.10099 5.80029 5.65713 5.80029C6.21327 5.80029 6.66411 6.25113 6.66411 6.80727Z" fill="white"/>
    <path d="M9.65166 6.80727C9.65166 7.36341 9.20082 7.81425 8.64468 7.81425C8.08854 7.81425 7.6377 7.36341 7.6377 6.80727C7.6377 6.25113 8.08854 5.80029 8.64468 5.80029C9.20082 5.80029 9.65166 6.25113 9.65166 6.80727Z" fill="white"/>
    <path d="M12.6329 6.80727C12.6329 7.36341 12.182 7.81425 11.6259 7.81425C11.0697 7.81425 10.6189 7.36341 10.6189 6.80727C10.6189 6.25113 11.0697 5.80029 11.6259 5.80029C12.182 5.80029 12.6329 6.25113 12.6329 6.80727Z" fill="white"/>
</svg>
