<svg width="20" height="20" viewBox="0 0 20 20" fill="none" xmlns="http://www.w3.org/2000/svg">
    <path d="M6.78571 2.5H13.2143C15.5821 2.5 17.5 4.41786 17.5 6.78571V13.2143C17.5 15.5821 15.5821 17.5 13.2143 17.5H6.78571C4.41786 17.5 2.5 15.5821 2.5 13.2143V6.78571C2.5 4.41786 4.41786 2.5 6.78571 2.5Z" fill="black"/>
    <path d="M12.3399 13.1899H7.4599C7.1499 13.1899 6.8999 13.4399 6.8999 13.7499V13.8599C6.8999 14.1699 7.1499 14.4199 7.4599 14.4199H12.3399C12.6499 14.4199 12.8999 14.1699 12.8999 13.8599V13.7499C12.8999 13.4399 12.6499 13.1899 12.3399 13.1899Z" fill="white"/>
    <path d="M7.62992 10.0899L9.50992 11.7999L9.89992 12.1499L10.2699 11.7999L12.6899 9.61988C12.9299 9.39988 12.9699 9.02988 12.7399 8.75988C12.5299 8.50988 12.1599 8.46988 11.9099 8.68988L10.4799 9.99988V5.74988C10.4799 5.40988 10.2199 5.12988 9.89992 5.12988C9.57992 5.12988 9.31992 5.40988 9.31992 5.74988V9.99988L7.86992 8.69988C7.62992 8.47988 7.25992 8.49988 7.04992 8.75988C6.82992 9.01988 6.85992 9.39988 7.09992 9.61988L7.62992 10.0899Z" fill="white"/>
</svg>
