<svg width="14" height="14" viewBox="0 0 14 14" fill="none" xmlns="http://www.w3.org/2000/svg">
<path fill-rule="evenodd" clip-rule="evenodd" d="M2.77456 1.2255C2.34693 0.797879 1.65362 0.797879 1.22599 1.2255C0.798367 1.65313 0.798367 2.34644 1.22599 2.77407L5.22468 6.77276L1.22599 10.7714C0.798367 11.1991 0.798367 11.8924 1.22599 12.32C1.65362 12.7476 2.34693 12.7476 2.77456 12.32L6.77324 8.32132L10.7719 12.32C11.1996 12.7476 11.8929 12.7476 12.3205 12.32C12.7481 11.8924 12.7481 11.1991 12.3205 10.7714L8.32181 6.77276L12.3205 2.77407C12.7481 2.34644 12.7481 1.65313 12.3205 1.2255C11.8929 0.797879 11.1996 0.797879 10.7719 1.2255L6.77324 5.22419L2.77456 1.2255Z" fill="black"/>
</svg>
