<svg width="30" height="30" viewBox="0 0 30 30" fill="none" xmlns="http://www.w3.org/2000/svg">
    <path d="M15.5601 15.2104H14.4401C13.2967 15.2104 12.3634 16.2021 12.3634 17.4271V24.6254C12.3634 25.8504 13.2967 26.8421 14.4401 26.8421H15.5601C16.7034 26.8421 17.6367 25.8504 17.6367 24.6254V17.4271C17.6367 16.2138 16.7034 15.2104 15.5601 15.2104Z" fill="#3944EE"/>
    <path d="M8.74672 19.4336H7.62672C6.48338 19.4336 5.55005 20.4369 5.55005 21.6736V24.6019C5.55005 25.8386 6.48338 26.8419 7.62672 26.8419H8.74672C9.89005 26.8419 10.8234 25.8386 10.8234 24.6019V21.6736C10.8234 20.4369 9.89005 19.4336 8.74672 19.4336Z" fill="#3944EE"/>
    <path d="M19.1768 13.1102V24.7302C19.1768 25.8969 20.1101 26.8419 21.2534 26.8419H22.3734C23.5168 26.8419 24.4501 25.8969 24.4501 24.7302V10.9985H21.2534C20.1101 10.9985 19.1768 11.9435 19.1768 13.1102Z" fill="#3944EE"/>
    <path d="M20.0167 2.40039C19.5967 2.40039 19.2584 2.73872 19.2584 3.15872C19.2584 3.57872 19.5967 3.91706 20.0167 3.91706H21.7667L14.6734 10.1121L12.2001 7.70872L5.81841 13.4721C5.50341 13.7521 5.48007 14.2304 5.76007 14.5454C5.91174 14.7087 6.11007 14.7904 6.32007 14.7904C6.50674 14.7904 6.68174 14.7204 6.83341 14.5921L12.1651 9.77372L14.6267 12.1654L22.9451 4.89706V6.83372C22.9451 7.25372 23.2834 7.59206 23.7034 7.59206C24.1234 7.59206 24.4501 7.24206 24.4501 6.83372V2.40039H20.0167Z" fill="#3944EE"/>
</svg>
