<svg width="30" height="30" viewBox="0 0 30 30" fill="none" xmlns="http://www.w3.org/2000/svg">
    <path d="M18.0156 11.3602L19.3617 10.6494L22.0325 9.24939C20.0186 7.92477 17.5956 7.16016 15.0002 7.16016C7.82786 7.16016 2.00171 12.9863 2.00171 20.1586H5.68479C5.68479 15.0109 9.85248 10.8432 15.0002 10.8432C16.0663 10.8432 17.0786 11.0048 18.0156 11.3602Z" fill="#3944EE"/>
    <path d="M25.6079 12.6523L24.1864 15.3554L23.5725 16.54C24.0571 17.6493 24.3156 18.877 24.3156 20.1477H27.9987C27.9879 17.3693 27.1048 14.7739 25.6079 12.6523Z" fill="#3944EE"/>
    <path d="M24.3048 10.4985L23.9171 10.7032L20.374 12.5555L13.9771 15.9047C13.6325 16.0662 13.331 16.2708 13.0402 16.5508C12.8894 16.7016 12.7602 16.8416 12.6525 17.0139C11.6186 18.4462 11.7586 20.4601 13.0402 21.7524C14.3217 23.0447 16.3571 23.1739 17.7786 22.1293C17.951 22.0216 18.1017 21.8924 18.2417 21.7524C18.5217 21.4832 18.7371 21.1601 18.9094 20.837L22.2802 14.3539L24.1002 10.8755L24.3048 10.4985ZM15.711 20.0832C15.6894 20.0939 15.6571 20.0939 15.6356 20.0939C15.1294 20.0939 14.7202 19.6847 14.7202 19.1785C14.7202 19.157 14.7202 19.1247 14.731 19.1032C14.7525 18.6293 15.1617 18.2524 15.6356 18.2524C16.1417 18.2524 16.551 18.6616 16.551 19.1678C16.551 19.6632 16.174 20.0508 15.711 20.0832Z" fill="#3944EE"/>
</svg>
