<svg width="36" height="36" viewBox="0 0 36 36" fill="none" xmlns="http://www.w3.org/2000/svg">
    <circle cx="18" cy="18" r="15" fill="#3339F1"/>
    <path d="M18 2.99994C9.72 2.99994 3 9.71994 3 17.9999C3 26.2799 9.72 32.9999 18 32.9999C26.28 32.9999 33 26.2799 33 17.9999C33 9.71994 26.28 2.99994 18 2.99994ZM21.99 20.5949L20.07 21.7049L18.15 22.8149C15.675 24.2399 13.65 23.0699 13.65 20.2199V17.9999V15.7799C13.65 12.9149 15.675 11.7599 18.15 13.1849L20.07 14.2949L21.99 15.4049C24.465 16.8299 24.465 19.1699 21.99 20.5949Z" fill="white"/>
</svg>
