<svg width="26" height="26" viewBox="0 0 26 26" fill="none" xmlns="http://www.w3.org/2000/svg">
    <path d="M20.7233 8.66154C20.5896 8.3425 20.336 8.08878 20.017 7.95512C19.861 7.86681 19.6875 7.81387 19.5088 7.80005H13.3933C13.0506 7.80005 12.722 7.9362 12.4797 8.17854C12.2374 8.42088 12.1013 8.74957 12.1013 9.09229C12.1013 9.43502 12.2374 9.7637 12.4797 10.006C12.722 10.2484 13.0506 10.3845 13.3933 10.3845H16.4166L8.18223 18.5946C8.0614 18.714 7.96546 18.8562 7.89998 19.0129C7.8345 19.1697 7.80078 19.3379 7.80078 19.5078C7.80078 19.6777 7.8345 19.8459 7.89998 20.0026C7.96546 20.1594 8.0614 20.3016 8.18223 20.421C8.30122 20.5421 8.44337 20.6382 8.60023 20.7033C8.75708 20.7684 8.92542 20.8013 9.09525 20.8C9.26507 20.8013 9.43342 20.7684 9.59027 20.7033C9.74712 20.6382 9.88927 20.5421 10.0083 20.421L18.2168 12.2109V15.2089C18.2168 15.5516 18.3529 15.8803 18.5952 16.1227C18.8375 16.365 19.1661 16.5012 19.5088 16.5012C19.8514 16.5012 20.1801 16.365 20.4224 16.1227C20.6647 15.8803 20.8008 15.5516 20.8008 15.2089V9.09229C20.7969 8.94561 20.7708 8.80037 20.7233 8.66154Z" fill="black"/>
</svg>
