<svg width="30" height="30" viewBox="0 0 30 30" fill="none" xmlns="http://www.w3.org/2000/svg">
    <g clip-path="url(#clip0_1370_27159)">
        <path d="M25.5224 12.8051C24.9626 10.814 23.814 9.02398 22.2174 7.65429L22.1684 7.70168L22.1754 7.64481C20.7807 6.45574 19.0955 5.62984 17.2788 5.2451C15.4621 4.86037 13.5739 4.92949 11.7926 5.44595C10.0112 5.96241 8.39547 6.90915 7.09788 8.19678C5.8003 9.48442 4.86371 11.0704 4.37656 12.8051C4.41999 12.7875 4.46903 12.7875 4.51526 12.774C3.47089 13.448 2.60769 14.3529 1.99715 15.4135C1.38662 16.4742 1.04631 17.6601 1.0044 18.8732C0.9625 20.0863 1.22021 21.2915 1.75619 22.3892C2.29218 23.4868 3.09101 24.4453 4.08654 25.1852L4.09495 25.177L4.08654 25.2095C5.46072 26.2128 7.13771 26.7522 8.85988 26.745H14.9138L14.9474 26.7775H21.0293C22.7273 26.7907 24.3846 26.2752 25.7559 25.3073C27.1272 24.3395 28.1398 22.9708 28.6437 21.4036C29.1477 19.8365 29.1163 18.1541 28.5541 16.6056C27.992 15.057 26.929 13.7245 25.5224 12.8051ZM21.0307 22.0736H14.9488L14.9404 22.0817V22.0397H8.85988C8.42836 22.0397 8.00385 21.9503 7.61016 21.7784L7.61296 21.777C7.16452 21.5815 6.77186 21.2838 6.46868 20.9094C6.16551 20.5349 5.96088 20.095 5.87236 19.6273C5.78384 19.1596 5.81408 18.6781 5.96047 18.2242C6.10686 17.7703 6.36504 17.3575 6.71284 17.0213C7.06064 16.685 7.48767 16.4354 7.95728 16.2937C8.42689 16.1521 8.92506 16.1227 9.40901 16.2081C9.89296 16.2935 10.3482 16.4911 10.7358 16.784C11.1233 17.0768 11.4315 17.4562 11.6339 17.8896L15.1618 14.4801C13.9881 13.0026 12.2958 11.9912 10.4038 11.6365C10.429 11.6244 10.4529 11.6041 10.4739 11.6081C11.5169 10.501 12.9584 9.82115 14.5032 9.70763C16.0479 9.5941 17.5792 10.0555 18.7834 10.9974H18.8479C19.5456 11.5596 20.1039 12.2659 20.4817 13.0643C20.8595 13.8628 21.0471 14.7329 21.0307 15.6107V16.197C21.837 16.197 22.6103 16.5066 23.1805 17.0576C23.7507 17.6086 24.071 18.356 24.071 19.1353C24.071 19.9146 23.7507 20.6619 23.1805 21.213C22.6103 21.764 21.837 22.0736 21.0307 22.0736Z" fill="white"/>
    </g>
    <defs>
        <clipPath id="clip0_1370_27159">
            <rect width="28" height="28" fill="white" transform="translate(1 1)"/>
        </clipPath>
    </defs>
</svg>
