<svg width="30" height="30" viewBox="0 0 30 30" fill="none" xmlns="http://www.w3.org/2000/svg">
    <path d="M21.7862 24.5566H8.12746C7.25979 24.5566 6.56006 25.2564 6.56006 26.124V26.4319C6.56006 27.2996 7.25979 27.9993 8.12746 27.9993H21.7862C22.6539 27.9993 23.3536 27.2996 23.3536 26.4319V26.124C23.3536 25.2564 22.6539 24.5566 21.7862 24.5566Z" fill="white"/>
    <path d="M8.60346 15.8827L13.8654 20.6688L14.957 21.6485L15.9926 20.6688L22.766 14.5672C23.4378 13.9514 23.5497 12.9158 22.906 12.1601C22.3182 11.4604 21.2826 11.3484 20.5829 11.9642L16.5804 15.6308V3.73533C16.5804 2.7837 15.8527 2 14.957 2C14.0614 2 13.3336 2.7837 13.3336 3.73533V15.6308L9.2752 11.9922C8.60346 11.3764 7.56786 11.4324 6.98008 12.1601C6.36432 12.8878 6.44829 13.9514 7.12003 14.5672L8.60346 15.8827Z" fill="white"/>
</svg>
