<svg width="20" height="20" viewBox="0 0 20 20" fill="none" xmlns="http://www.w3.org/2000/svg">
    <g clip-path="url(#clip0_1678_9164)">
        <mask id="mask0_1678_9164" style="mask-type:luminance" maskUnits="userSpaceOnUse" x="0" y="0" width="20" height="20">
            <path d="M20 0H0V20H20V0Z" fill="white"/>
        </mask>
        <g mask="url(#mask0_1678_9164)">
            <path d="M14.1665 8.33301C15.5472 8.33301 16.6665 7.21372 16.6665 5.83301C16.6665 4.4523 15.5472 3.33301 14.1665 3.33301C12.7858 3.33301 11.6665 4.4523 11.6665 5.83301C11.6665 7.21372 12.7858 8.33301 14.1665 8.33301Z" stroke="black" stroke-opacity="0.8" stroke-width="2.08333" stroke-linecap="round" stroke-linejoin="round"/>
            <path d="M5.83325 16.667C7.21396 16.667 8.33325 15.5477 8.33325 14.167C8.33325 12.7863 7.21396 11.667 5.83325 11.667C4.45254 11.667 3.33325 12.7863 3.33325 14.167C3.33325 15.5477 4.45254 16.667 5.83325 16.667Z" stroke="black" stroke-opacity="0.8" stroke-width="2.08333" stroke-linecap="round" stroke-linejoin="round"/>
            <path d="M11.6665 11.667H16.6665V15.8337C16.6665 16.2939 16.2934 16.667 15.8332 16.667H12.4998C12.0396 16.667 11.6665 16.2939 11.6665 15.8337V11.667Z" stroke="black" stroke-opacity="0.8" stroke-width="2.08333" stroke-linecap="round" stroke-linejoin="round"/>
            <path d="M3.33325 3.33301H8.33325V7.49967C8.33325 7.95991 7.96015 8.33301 7.49992 8.33301H4.16659C3.70635 8.33301 3.33325 7.95991 3.33325 7.49967V3.33301Z" stroke="black" stroke-opacity="0.8" stroke-width="2.08333" stroke-linecap="round" stroke-linejoin="round"/>
        </g>
    </g>
    <defs>
        <clipPath id="clip0_1678_9164">
            <rect width="20" height="20" fill="white"/>
        </clipPath>
    </defs>
</svg>
