<svg width="16" height="16" viewBox="0 0 16 16" fill="none" xmlns="http://www.w3.org/2000/svg">
    <path d="M8.45093 1.91695L10.1408 5.38122L13.943 5.97264C14.3655 6.05713 14.5345 6.56412 14.281 6.9021L11.4927 9.60591L12.1687 13.4081C12.2532 13.8306 11.7462 14.1685 11.4082 13.9995L8.02847 12.2252L4.64872 13.9995C4.22625 14.1685 3.80378 13.8306 3.88827 13.4081L4.56422 9.60591L1.77593 6.9021C1.43796 6.56412 1.60694 6.05713 2.11391 5.97264L5.91612 5.38122L7.606 1.91695C7.69049 1.49448 8.28195 1.49448 8.45093 1.91695Z" fill="black"/>
    <path fill-rule="evenodd" clip-rule="evenodd" d="M8.02842 2.23694L6.26437 5.85328L2.19723 6.4859C2.15604 6.49305 2.13424 6.50523 2.12489 6.51184C2.12818 6.517 2.13342 6.52396 2.14165 6.53242L5.12451 9.4249L4.39825 13.5101C4.39784 13.5122 4.39752 13.5137 4.39743 13.5148C4.39793 13.5153 4.39864 13.516 4.39959 13.5167C4.4032 13.5195 4.40878 13.5224 4.41618 13.5235C4.42053 13.5241 4.42829 13.5246 4.44 13.5218L8.02842 11.6379L11.6141 13.5203C11.6149 13.52 11.6157 13.5197 11.6165 13.5194C11.6239 13.5162 11.6318 13.5118 11.6393 13.5063C11.6462 13.5012 11.6515 13.4962 11.6553 13.4918L10.9323 9.4249L13.8753 6.57107C13.8816 6.55434 13.882 6.53498 13.8751 6.51535C13.8706 6.50253 13.8644 6.49484 13.8602 6.49105C13.8578 6.48888 13.8543 6.4861 13.8467 6.48389L9.79248 5.85328L8.02842 2.23694ZM2.1197 6.50166C2.1197 6.50164 2.11971 6.50168 2.1197 6.50166V6.50166ZM8.92528 1.70337C8.75297 1.29656 8.37023 1.08008 7.99674 1.08008C7.62712 1.08008 7.2379 1.30055 7.11441 1.73853L5.56779 4.90912L2.03394 5.4588L2.02838 5.45969C1.61213 5.52907 1.27176 5.78929 1.13767 6.16923C1.00263 6.55185 1.1086 6.97018 1.40819 7.26977L4.00385 9.78687L3.3771 13.3124C3.20911 14.176 4.07577 14.7887 4.8418 14.4823L4.86667 14.4724L8.02842 12.8125L11.1665 14.4599L11.1756 14.4646C11.5663 14.66 11.9865 14.5413 12.2543 14.345C12.5307 14.1423 12.7679 13.7675 12.6798 13.3125L12.053 9.78687L14.6724 7.24686L14.697 7.21408C15.1598 6.59696 14.875 5.62873 14.045 5.46272L14.034 5.46052L10.4891 4.90912L8.92528 1.70337Z" fill="black"/>
</svg>
