<svg width="24" height="24" viewBox="0 0 24 24" fill="none" xmlns="http://www.w3.org/2000/svg">
    <mask id="mask0_423_3743" style="mask-type:luminance" maskUnits="userSpaceOnUse" x="0" y="2" width="24" height="24">
        <path d="M24 26V2L0 2V26H24Z" fill="white"/>
    </mask>
    <g mask="url(#mask0_423_3743)">
        <path d="M16.8195 19.9082C16.5911 19.924 16.3618 19.8932 16.1456 19.8176C15.9295 19.742 15.731 19.6231 15.5623 19.4683L12.1611 16.0672L8.68918 19.5391C8.41295 19.8413 8.03596 20.0324 7.6289 20.0765C7.22183 20.1207 6.81264 20.0148 6.47806 19.7788C6.29622 19.6333 6.1453 19.453 6.03419 19.2484C5.92307 19.0438 5.85401 18.819 5.83106 18.5873C5.81563 18.3589 5.84672 18.1298 5.92244 17.9138C5.99816 17.6979 6.11694 17.4995 6.27159 17.3308L9.84813 13.7542L6.62019 10.5263C6.31788 10.2493 6.12724 9.87134 6.08413 9.46359C6.04102 9.05585 6.14843 8.6464 6.38614 8.31232C6.53175 8.13068 6.71213 7.97991 6.91671 7.86882C7.12129 7.75772 7.34597 7.68854 7.57761 7.66532C7.81425 7.6504 8.05141 7.68495 8.27395 7.76677C8.4965 7.84858 8.69957 7.97586 8.8702 8.14049L12.2014 11.4717L15.2617 8.41131C15.5381 8.109 15.9153 7.91791 16.3225 7.87391C16.7297 7.82991 17.139 7.93601 17.4736 8.17231C17.6554 8.31774 17.8063 8.49807 17.9174 8.70268C18.0286 8.9073 18.0976 9.13208 18.1206 9.36379C18.1351 9.60067 18.1001 9.83798 18.0179 10.0606C17.9358 10.2833 17.8082 10.4864 17.6433 10.6571L14.4776 13.8228L17.7394 17.0847C18.0383 17.3757 18.2299 17.7592 18.2832 18.1729C18.3318 18.573 18.2216 18.9761 17.9763 19.2958C17.8495 19.4859 17.6774 19.6414 17.4754 19.7483C17.2734 19.8553 17.048 19.9102 16.8195 19.9082Z" fill="black"/>
    </g>
</svg>
