<svg width="24" height="24" viewBox="0 0 24 24" fill="none" xmlns="http://www.w3.org/2000/svg">
    <g clip-path="url(#clip0_423_3797)">
        <g opacity="0.1">
            <mask id="mask0_423_3797" style="mask-type:luminance" maskUnits="userSpaceOnUse" x="0" y="0" width="24" height="24">
                <path d="M24 0H0V24H24V0Z" fill="white"/>
            </mask>
            <g mask="url(#mask0_423_3797)">
                <path d="M19.586 12.7698C19.4357 12.9425 19.2518 13.0828 19.0455 13.1822C18.8392 13.2816 18.6148 13.3379 18.386 13.3478H13.577V18.2578C13.5954 18.6668 13.464 19.0685 13.2074 19.3875C12.9507 19.7066 12.5865 19.9211 12.183 19.9908C11.9516 20.0165 11.7174 19.9957 11.4941 19.9296C11.2709 19.8635 11.0631 19.7534 10.883 19.6058C10.7107 19.4552 10.5706 19.2712 10.4715 19.0649C10.3723 18.8587 10.316 18.6344 10.306 18.4058V13.3478H5.74004C5.33042 13.3657 4.92837 13.2332 4.60957 12.9754C4.29077 12.7175 4.07719 12.3521 4.00904 11.9478C3.98358 11.7164 4.00451 11.4822 4.07061 11.259C4.13672 11.0358 4.24667 10.828 4.39404 10.6478C4.55083 10.4699 4.74295 10.3266 4.95817 10.2271C5.17338 10.1276 5.40697 10.074 5.64404 10.0698H10.356V5.74176C10.3377 5.33272 10.4691 4.93102 10.7257 4.61197C10.9824 4.29293 11.3466 4.07845 11.75 4.00876C11.9815 3.98301 12.2157 4.0038 12.4389 4.06992C12.6622 4.13604 12.87 4.24614 13.05 4.39376C13.2278 4.55102 13.3709 4.74353 13.4702 4.95907C13.5696 5.17462 13.623 5.40846 13.627 5.64576V10.1188H18.242C18.6591 10.1133 19.0658 10.2489 19.396 10.5038C19.7134 10.7536 19.9199 11.1181 19.971 11.5188C20.0158 11.7428 20.004 11.9746 19.9368 12.193C19.8696 12.4114 19.749 12.6096 19.586 12.7698Z" fill="black"/>
            </g>
        </g>
    </g>
    <defs>
        <clipPath id="clip0_423_3797">
            <rect width="24" height="24" fill="white"/>
        </clipPath>
    </defs>
</svg>
